<svg width="1792.0000000000002" height="1792.0000000000002" xmlns="http://www.w3.org/2000/svg">
 <defs>
  <linearGradient y2="0" x2="1" y1="0.485938" x1="1" id="svg_3">
   <stop offset="0" stop-opacity="0.996094" stop-color="#52277d"/>
   <stop offset="1" stop-opacity="0.996094" stop-color="#a148ad"/>
  </linearGradient>
 </defs>
 <g>
  <title>background</title>
  <rect fill="none" id="canvas_background" height="1794" width="1794" y="-1" x="-1"/>
 </g>
 <g>
  <title>Layer 1</title>
  <ellipse ry="877.229103" rx="877.229103" id="svg_4" cy="896.000021" cx="896.000018" stroke-opacity="null" stroke-width="null" stroke="null" fill="#ffffff"/>
  <path fill="url(#svg_3)" id="svg_1" d="m1721.564209,901.154114q0,269.813416 -157.480469,485.34137t-406.870117,298.299683q-29.023438,5.374878 -42.460693,-7.524658t-13.436523,-32.248535l0,-226.815308q0,-104.270508 -55.897827,-152.643311q61.272583,-6.449829 110.182739,-19.349243t101.04541,-41.923096t87.071533,-71.484375t56.97229,-112.869995t22.036499,-161.78064q0,-130.069458 -84.921021,-221.440369q39.773071,-97.820801 -8.599854,-219.290466q-30.098755,-9.674561 -87.071045,11.824524t-98.895996,47.297913l-40.8479,25.798889q-99.970886,-27.948853 -206.391357,-27.948853t-206.390991,27.948853q-17.199219,-11.824524 -45.685547,-29.023682t-89.758545,-41.385864t-92.445953,-14.51178q-47.298035,121.469666 -7.52475,219.290466q-84.921295,91.370911 -84.921295,221.440369q0,91.370972 22.03653,161.243164t56.435028,112.869873t86.533844,72.021973t101.045593,41.923096t110.182739,19.349243q-42.998169,38.698364 -52.672729,110.720337q-22.574036,10.74939 -48.373047,16.124146t-61.272217,5.374756t-70.409485,-23.111572t-59.659882,-67.18457q-20.424103,-34.398438 -52.135254,-55.897339t-53.210175,-25.79895l-21.499054,-3.224976q-22.574036,0 -31.173645,4.83728t-5.374817,12.362061t9.674591,15.049438t13.974426,12.899292l7.524689,5.374756q23.648926,10.749634 46.760437,40.848145t33.861084,54.822632l10.749481,24.723999q13.974396,40.848145 47.297913,66.109619t72.021851,32.248657t74.70929,7.524536t59.659973,-3.762085l24.723938,-4.299927q0,40.848145 0.537476,95.670654t0.537476,58.047729q0,19.349121 -13.974426,32.248535t-42.998169,7.524658q-249.38916,-82.771484 -406.869812,-298.299683t-157.480652,-485.34137q0,-224.665283 110.720184,-414.394531t300.449493,-300.448914t414.394409,-110.720184t414.394775,110.720184t300.449707,300.448914t110.719849,414.394531z"/>
 </g>
</svg>