<svg xmlns="http://www.w3.org/2000/svg" version="1.1" xmlns:xlink="http://www.w3.org/1999/xlink" xmlns:svgjs="http://svgjs.com/svgjs" width="512" height="512" x="0" y="0" viewBox="0 0 64 64" style="enable-background:new 0 0 512 512" xml:space="preserve" class=""><g><rect xmlns="http://www.w3.org/2000/svg" fill="#ffffff" height="44" rx="1" transform="matrix(-1 0 0 -1 56 80)" width="52" x="2" y="18" data-original="#42eaf5" class=""></rect><path xmlns="http://www.w3.org/2000/svg" d="m61 10h-7.48938v-4.0426a2.95746 2.95746 0 0 0 -2.95746-2.95746h-7.87225a2.95747 2.95747 0 0 0 -2.95752 2.95746v4.0426h-28.72339a1 1 0 0 0 -1 1v42a1 1 0 0 0 1 1h36l15-15v-28a1 1 0 0 0 -1-1z" fill="#ffffff" data-original="#e3fcfd" class=""></path><path xmlns="http://www.w3.org/2000/svg" d="m47 43a4 4 0 0 1 4-4h11l-15 15z" fill="#ffffff" data-original="#e3fcfd" class=""></path><circle xmlns="http://www.w3.org/2000/svg" cx="26.936" cy="26" fill="#ffffff" r="8" data-original="#42eaf5" class=""></circle><path xmlns="http://www.w3.org/2000/svg" d="m36 46v-5a3 3 0 0 0 -3-3h-12a3 3 0 0 0 -3 3v5z" fill="#ffffff" data-original="#42eaf5" class=""></path><g xmlns="http://www.w3.org/2000/svg" fill="#007da1"><path d="m12 12h25a2 2 0 0 0 4 0v-2a5.51088 5.51088 0 1 1 11-.5v16.5a2 2 0 0 1 -4 0v-16a2 2 0 0 0 -4 0v16a6 6 0 0 0 12 0v-14h4v25h-9a6.00657 6.00657 0 0 0 -6 6v9h-33zm37 37.17139v-6.17139a2.00229 2.00229 0 0 1 2-2h6.17151l-4.08557 4.08569zm3 10.82861h-48v-40h4v33a3.00328 3.00328 0 0 0 3 3h36a2.0488 2.0488 0 0 0 1.41406-.58594l3.58594-3.58593zm9-52h-5.13a9.48731 9.48731 0 0 0 -18.74 0h-26.13a3.00882 3.00882 0 0 0 -3 3v5h-5a3.00882 3.00882 0 0 0 -3 3v42a3.00882 3.00882 0 0 0 3 3h50a3.00882 3.00882 0 0 0 3-3v-13.17l7.11712-7.135a2.98619 2.98619 0 0 0 .876-2.10893c.00688-5.51642.00688-27.58607.00688-27.58607a3.00879 3.00879 0 0 0 -3-3z" fill="#007eff" data-original="#007da1" class=""></path><path d="m36.93652 26a10 10 0 1 0 -10 10 10.01145 10.01145 0 0 0 10-10zm-10 6a6 6 0 1 1 6-6 6.00657 6.00657 0 0 1 -6 6z" fill="#007eff" data-original="#007da1" class=""></path><path d="m18 48h18a2.0001 2.0001 0 0 0 2-2v-5a5.00588 5.00588 0 0 0 -5-5h-12a5.00588 5.00588 0 0 0 -5 5v5a2.0001 2.0001 0 0 0 2 2zm2-7a1.001 1.001 0 0 1 1-1h12a1.001 1.001 0 0 1 1 1v3h-14z" fill="#007eff" data-original="#007da1" class=""></path></g><circle xmlns="http://www.w3.org/2000/svg" cx="40.617" cy="34" fill="#ffffff" r="2" data-original="#42eaf5" class=""></circle></g></svg>